<svg xmlns="http://www.w3.org/2000/svg" viewBox="0 0 64 64" role="img" aria-labelledby="title desc">
  <title id="title">InsureChat Logo</title>
  <desc id="desc">Circular badge with a luminous mint spark icon.</desc>
  <defs>
    <radialGradient id="bg" cx="50%" cy="35%" r="60%">
      <stop offset="0%" stop-color="#1f3349"/>
      <stop offset="60%" stop-color="#132536"/>
      <stop offset="100%" stop-color="#0b1522"/>
    </radialGradient>
  </defs>
  <circle cx="32" cy="32" r="30" fill="url(#bg)"/>
  <g transform="translate(15.2 15.2) scale(1.4)">
    <path d="M9.937 15.5A2 2 0 0 0 8.5 14.063l-6.135-1.582a.5.5 0 0 1 0-.962L8.5 9.936A2 2 0 0 0 9.937 8.5l1.582-6.135a.5.5 0 0 1 .963 0L14.063 8.5A2 2 0 0 0 15.5 9.937l6.135 1.581a.5.5 0 0 1 0 .964L15.5 14.063a2 2 0 0 0-1.437 1.437l-1.582 6.135a.5.5 0 0 1-.963 0z" fill="#7ef5ce"/>
    <path d="M20 3v4" stroke="#7ef5ce" stroke-width="1.6" stroke-linecap="round" stroke-linejoin="round" vector-effect="non-scaling-stroke"/>
    <path d="M22 5h-4" stroke="#7ef5ce" stroke-width="1.6" stroke-linecap="round" stroke-linejoin="round" vector-effect="non-scaling-stroke"/>
    <path d="M4 17v2" stroke="#7ef5ce" stroke-width="1.6" stroke-linecap="round" stroke-linejoin="round" vector-effect="non-scaling-stroke"/>
    <path d="M5 18H3" stroke="#7ef5ce" stroke-width="1.6" stroke-linecap="round" stroke-linejoin="round" vector-effect="non-scaling-stroke"/>
  </g>
</svg>
